<svg xmlns="http://www.w3.org/2000/svg" viewBox="0 0 150 150"><title>YouTube</title><rect width="150" height="150" style="fill:#282828"/><path d="M122,50.77a12.54,12.54,0,0,0-8.84-8.89c-7.8-2.11-39.07-2.11-39.07-2.11S42.8,39.77,35,41.88a12.54,12.54,0,0,0-8.84,8.89C24.07,58.62,24.07,75,24.07,75s0,16.38,2.09,24.23A12.54,12.54,0,0,0,35,108.12c7.8,2.11,39.07,2.11,39.07,2.11s31.27,0,39.07-2.11A12.54,12.54,0,0,0,122,99.23c2.09-7.85,2.09-24.23,2.09-24.23S124.07,58.62,122,50.77Z" style="fill:red"/><polygon points="63.84 89.87 89.98 75 63.84 60.13 63.84 89.87" style="fill:#fff"/></svg>